<mxfile host="app.diagrams.net" agent="Mozilla/5.0 (Windows NT 10.0; Win64; x64) AppleWebKit/537.36 (KHTML, like Gecko) Chrome/131.0.0.0 Safari/537.36" version="25.0.3">
  <diagram name="Page-1" id="1EJeCuaPRWMYo5TFj3sO">
    <mxGraphModel dx="1973" dy="1203" grid="1" gridSize="10" guides="1" tooltips="1" connect="1" arrows="1" fold="1" page="1" pageScale="1" pageWidth="1169" pageHeight="827" math="0" shadow="0">
      <root>
        <mxCell id="0" />
        <mxCell id="1" parent="0" />
        <mxCell id="ynKtiJhWcqaerP6VtimJ-3" value="User" style="rounded=0;whiteSpace=wrap;html=1;" parent="1" vertex="1">
          <mxGeometry x="520" y="259" width="120" height="40" as="geometry" />
        </mxCell>
        <mxCell id="ynKtiJhWcqaerP6VtimJ-4" value="Id*" style="rounded=0;whiteSpace=wrap;html=1;" parent="1" vertex="1">
          <mxGeometry x="520" y="299" width="120" height="20" as="geometry" />
        </mxCell>
        <mxCell id="ynKtiJhWcqaerP6VtimJ-5" value="name" style="rounded=0;whiteSpace=wrap;html=1;" parent="1" vertex="1">
          <mxGeometry x="520" y="319" width="120" height="20" as="geometry" />
        </mxCell>
        <mxCell id="ynKtiJhWcqaerP6VtimJ-6" value="lastName" style="rounded=0;whiteSpace=wrap;html=1;" parent="1" vertex="1">
          <mxGeometry x="520" y="339" width="120" height="20" as="geometry" />
        </mxCell>
        <mxCell id="ynKtiJhWcqaerP6VtimJ-7" value="emailAddress" style="rounded=0;whiteSpace=wrap;html=1;" parent="1" vertex="1">
          <mxGeometry x="520" y="359" width="120" height="20" as="geometry" />
        </mxCell>
        <mxCell id="ynKtiJhWcqaerP6VtimJ-8" value="password" style="rounded=0;whiteSpace=wrap;html=1;" parent="1" vertex="1">
          <mxGeometry x="520" y="379" width="120" height="20" as="geometry" />
        </mxCell>
        <mxCell id="ynKtiJhWcqaerP6VtimJ-9" value="Organization" style="rounded=0;whiteSpace=wrap;html=1;" parent="1" vertex="1">
          <mxGeometry x="880" y="259" width="120" height="40" as="geometry" />
        </mxCell>
        <mxCell id="ynKtiJhWcqaerP6VtimJ-10" value="Id*" style="rounded=0;whiteSpace=wrap;html=1;" parent="1" vertex="1">
          <mxGeometry x="880" y="299" width="120" height="20" as="geometry" />
        </mxCell>
        <mxCell id="ynKtiJhWcqaerP6VtimJ-11" value="name" style="rounded=0;whiteSpace=wrap;html=1;" parent="1" vertex="1">
          <mxGeometry x="880" y="319" width="120" height="20" as="geometry" />
        </mxCell>
        <mxCell id="ynKtiJhWcqaerP6VtimJ-12" value="description" style="rounded=0;whiteSpace=wrap;html=1;" parent="1" vertex="1">
          <mxGeometry x="880" y="339" width="120" height="20" as="geometry" />
        </mxCell>
        <mxCell id="ynKtiJhWcqaerP6VtimJ-15" value="Project" style="rounded=0;whiteSpace=wrap;html=1;" parent="1" vertex="1">
          <mxGeometry x="550" y="589" width="120" height="40" as="geometry" />
        </mxCell>
        <mxCell id="ynKtiJhWcqaerP6VtimJ-16" value="Id*" style="rounded=0;whiteSpace=wrap;html=1;" parent="1" vertex="1">
          <mxGeometry x="550" y="629" width="120" height="20" as="geometry" />
        </mxCell>
        <mxCell id="ynKtiJhWcqaerP6VtimJ-17" value="name" style="rounded=0;whiteSpace=wrap;html=1;" parent="1" vertex="1">
          <mxGeometry x="550" y="649" width="120" height="20" as="geometry" />
        </mxCell>
        <mxCell id="ynKtiJhWcqaerP6VtimJ-18" value="description" style="rounded=0;whiteSpace=wrap;html=1;" parent="1" vertex="1">
          <mxGeometry x="550" y="669" width="120" height="20" as="geometry" />
        </mxCell>
        <mxCell id="ynKtiJhWcqaerP6VtimJ-19" value="organizationalRoles" style="rounded=0;whiteSpace=wrap;html=1;" parent="1" vertex="1">
          <mxGeometry x="920" y="419" width="120" height="40" as="geometry" />
        </mxCell>
        <mxCell id="ynKtiJhWcqaerP6VtimJ-20" value="Id*" style="rounded=0;whiteSpace=wrap;html=1;" parent="1" vertex="1">
          <mxGeometry x="920" y="459" width="120" height="20" as="geometry" />
        </mxCell>
        <mxCell id="ynKtiJhWcqaerP6VtimJ-21" value="name" style="rounded=0;whiteSpace=wrap;html=1;" parent="1" vertex="1">
          <mxGeometry x="920" y="479" width="120" height="20" as="geometry" />
        </mxCell>
        <mxCell id="ynKtiJhWcqaerP6VtimJ-22" value="description" style="rounded=0;whiteSpace=wrap;html=1;" parent="1" vertex="1">
          <mxGeometry x="920" y="499" width="120" height="20" as="geometry" />
        </mxCell>
        <mxCell id="ynKtiJhWcqaerP6VtimJ-29" value="userRoleToOrganization" style="rounded=0;whiteSpace=wrap;html=1;" parent="1" vertex="1">
          <mxGeometry x="680" y="419" width="160" height="40" as="geometry" />
        </mxCell>
        <mxCell id="ynKtiJhWcqaerP6VtimJ-30" value="userId" style="rounded=0;whiteSpace=wrap;html=1;" parent="1" vertex="1">
          <mxGeometry x="680" y="459" width="160" height="20" as="geometry" />
        </mxCell>
        <mxCell id="ynKtiJhWcqaerP6VtimJ-31" value="organizationId" style="rounded=0;whiteSpace=wrap;html=1;" parent="1" vertex="1">
          <mxGeometry x="680" y="479" width="160" height="20" as="geometry" />
        </mxCell>
        <mxCell id="ynKtiJhWcqaerP6VtimJ-32" value="" style="endArrow=classic;startArrow=classic;html=1;rounded=0;entryX=1.013;entryY=0.704;entryDx=0;entryDy=0;entryPerimeter=0;" parent="1" target="ynKtiJhWcqaerP6VtimJ-4" edge="1">
          <mxGeometry width="50" height="50" relative="1" as="geometry">
            <mxPoint x="680" y="489" as="sourcePoint" />
            <mxPoint x="640" y="309" as="targetPoint" />
            <Array as="points">
              <mxPoint x="660" y="489" />
              <mxPoint x="660" y="313" />
            </Array>
          </mxGeometry>
        </mxCell>
        <mxCell id="ynKtiJhWcqaerP6VtimJ-33" value="" style="endArrow=classic;startArrow=classic;html=1;rounded=0;entryX=0;entryY=0.5;entryDx=0;entryDy=0;exitX=1;exitY=0.5;exitDx=0;exitDy=0;" parent="1" source="ynKtiJhWcqaerP6VtimJ-31" target="ynKtiJhWcqaerP6VtimJ-10" edge="1">
          <mxGeometry width="50" height="50" relative="1" as="geometry">
            <mxPoint x="840" y="459" as="sourcePoint" />
            <mxPoint x="880" y="299" as="targetPoint" />
            <Array as="points">
              <mxPoint x="860" y="489" />
              <mxPoint x="860" y="309" />
            </Array>
          </mxGeometry>
        </mxCell>
        <mxCell id="ynKtiJhWcqaerP6VtimJ-34" value="roleId" style="rounded=0;whiteSpace=wrap;html=1;" parent="1" vertex="1">
          <mxGeometry x="680" y="499" width="160" height="20" as="geometry" />
        </mxCell>
        <mxCell id="ynKtiJhWcqaerP6VtimJ-35" value="" style="endArrow=classic;startArrow=classic;html=1;rounded=0;exitX=0;exitY=0.25;exitDx=0;exitDy=0;entryX=1;entryY=0.5;entryDx=0;entryDy=0;" parent="1" source="ynKtiJhWcqaerP6VtimJ-20" target="ynKtiJhWcqaerP6VtimJ-34" edge="1">
          <mxGeometry width="50" height="50" relative="1" as="geometry">
            <mxPoint x="880" y="669" as="sourcePoint" />
            <mxPoint x="840" y="479" as="targetPoint" />
            <Array as="points">
              <mxPoint x="880" y="464" />
              <mxPoint x="880" y="509" />
              <mxPoint x="860" y="509" />
            </Array>
          </mxGeometry>
        </mxCell>
        <mxCell id="ynKtiJhWcqaerP6VtimJ-36" value="userRoleToProject" style="rounded=0;whiteSpace=wrap;html=1;" parent="1" vertex="1">
          <mxGeometry x="310" y="399" width="160" height="40" as="geometry" />
        </mxCell>
        <mxCell id="ynKtiJhWcqaerP6VtimJ-37" value="userId" style="rounded=0;whiteSpace=wrap;html=1;" parent="1" vertex="1">
          <mxGeometry x="310" y="439" width="160" height="20" as="geometry" />
        </mxCell>
        <mxCell id="ynKtiJhWcqaerP6VtimJ-38" value="projectId" style="rounded=0;whiteSpace=wrap;html=1;" parent="1" vertex="1">
          <mxGeometry x="310" y="459" width="160" height="20" as="geometry" />
        </mxCell>
        <mxCell id="ynKtiJhWcqaerP6VtimJ-39" value="roleId" style="rounded=0;whiteSpace=wrap;html=1;" parent="1" vertex="1">
          <mxGeometry x="310" y="479" width="160" height="20" as="geometry" />
        </mxCell>
        <mxCell id="ynKtiJhWcqaerP6VtimJ-40" value="projectRoles" style="rounded=0;whiteSpace=wrap;html=1;" parent="1" vertex="1">
          <mxGeometry x="130" y="389" width="120" height="40" as="geometry" />
        </mxCell>
        <mxCell id="ynKtiJhWcqaerP6VtimJ-41" value="Id*" style="rounded=0;whiteSpace=wrap;html=1;" parent="1" vertex="1">
          <mxGeometry x="130" y="429" width="120" height="20" as="geometry" />
        </mxCell>
        <mxCell id="ynKtiJhWcqaerP6VtimJ-42" value="name" style="rounded=0;whiteSpace=wrap;html=1;" parent="1" vertex="1">
          <mxGeometry x="130" y="449" width="120" height="20" as="geometry" />
        </mxCell>
        <mxCell id="ynKtiJhWcqaerP6VtimJ-43" value="description" style="rounded=0;whiteSpace=wrap;html=1;" parent="1" vertex="1">
          <mxGeometry x="130" y="469" width="120" height="20" as="geometry" />
        </mxCell>
        <mxCell id="ynKtiJhWcqaerP6VtimJ-44" value="" style="endArrow=classic;startArrow=classic;html=1;rounded=0;entryX=0;entryY=0.5;entryDx=0;entryDy=0;exitX=1;exitY=0.5;exitDx=0;exitDy=0;" parent="1" source="ynKtiJhWcqaerP6VtimJ-37" edge="1">
          <mxGeometry width="50" height="50" relative="1" as="geometry">
            <mxPoint x="480" y="489" as="sourcePoint" />
            <mxPoint x="520" y="309" as="targetPoint" />
            <Array as="points">
              <mxPoint x="500" y="449" />
              <mxPoint x="500" y="309" />
            </Array>
          </mxGeometry>
        </mxCell>
        <mxCell id="ynKtiJhWcqaerP6VtimJ-45" value="" style="endArrow=classic;startArrow=classic;html=1;rounded=0;exitX=0;exitY=0.5;exitDx=0;exitDy=0;" parent="1" source="ynKtiJhWcqaerP6VtimJ-39" edge="1">
          <mxGeometry width="50" height="50" relative="1" as="geometry">
            <mxPoint x="1100" y="669" as="sourcePoint" />
            <mxPoint x="250" y="439" as="targetPoint" />
            <Array as="points">
              <mxPoint x="270" y="489" />
              <mxPoint x="270" y="439" />
            </Array>
          </mxGeometry>
        </mxCell>
        <mxCell id="ynKtiJhWcqaerP6VtimJ-46" value="" style="endArrow=classic;startArrow=classic;html=1;rounded=0;entryX=0;entryY=0.5;entryDx=0;entryDy=0;exitX=1;exitY=0.5;exitDx=0;exitDy=0;" parent="1" source="ynKtiJhWcqaerP6VtimJ-38" edge="1" target="ynKtiJhWcqaerP6VtimJ-16">
          <mxGeometry width="50" height="50" relative="1" as="geometry">
            <mxPoint x="1100" y="646.5" as="sourcePoint" />
            <mxPoint x="1140" y="311.4999999999998" as="targetPoint" />
            <Array as="points">
              <mxPoint x="510" y="469" />
              <mxPoint x="510" y="639" />
            </Array>
          </mxGeometry>
        </mxCell>
        <mxCell id="ynKtiJhWcqaerP6VtimJ-47" value="CSRFtoken" style="rounded=0;whiteSpace=wrap;html=1;" parent="1" vertex="1">
          <mxGeometry x="680" y="139" width="120" height="40" as="geometry" />
        </mxCell>
        <mxCell id="ynKtiJhWcqaerP6VtimJ-48" value="userId" style="rounded=0;whiteSpace=wrap;html=1;" parent="1" vertex="1">
          <mxGeometry x="680" y="179" width="120" height="20" as="geometry" />
        </mxCell>
        <mxCell id="ynKtiJhWcqaerP6VtimJ-49" value="token" style="rounded=0;whiteSpace=wrap;html=1;" parent="1" vertex="1">
          <mxGeometry x="680" y="199" width="120" height="20" as="geometry" />
        </mxCell>
        <mxCell id="ynKtiJhWcqaerP6VtimJ-51" value="" style="endArrow=classic;startArrow=classic;html=1;rounded=0;entryX=1;entryY=0.25;entryDx=0;entryDy=0;exitX=0;exitY=0.5;exitDx=0;exitDy=0;" parent="1" source="ynKtiJhWcqaerP6VtimJ-48" target="ynKtiJhWcqaerP6VtimJ-4" edge="1">
          <mxGeometry width="50" height="50" relative="1" as="geometry">
            <mxPoint x="690" y="499" as="sourcePoint" />
            <mxPoint x="652" y="323" as="targetPoint" />
            <Array as="points">
              <mxPoint x="660" y="189" />
              <mxPoint x="660" y="304" />
            </Array>
          </mxGeometry>
        </mxCell>
        <mxCell id="ynKtiJhWcqaerP6VtimJ-52" value="HTM: OrganizationId 0" style="text;html=1;align=center;verticalAlign=middle;whiteSpace=wrap;rounded=0;" parent="1" vertex="1">
          <mxGeometry x="880" y="359" width="140" height="30" as="geometry" />
        </mxCell>
      </root>
    </mxGraphModel>
  </diagram>
</mxfile>
